<svg aria-hidden="true" style="position: absolute; width: 0; height: 0; overflow: hidden;" version="1.1" xmlns="http://www.w3.org/2000/svg" xmlns:xlink="http://www.w3.org/1999/xlink">
    <defs>
        <symbol id="icon-close" viewBox="0 0 32 32">
            <path stroke-linejoin="miter" stroke-linecap="butt" stroke-miterlimit="4" stroke-width="2" d="M2.52 2l26.96 28M2 29.48l28-26.96"></path>
        </symbol>
        <symbol id="icon-arrow" viewBox="0 0 19 32">
            <path stroke-linejoin="round" stroke-linecap="round" stroke-miterlimit="4" stroke-width="6.4" d="M3.2 3.2l12.8 12.8-12.8 12.8"></path>
        </symbol>
        <symbol id="icon-burger" viewBox="0 0 46 32">
            <path stroke-linejoin="miter" stroke-linecap="butt" stroke-miterlimit="4" stroke-width="2.2857" d="M0 2.286h45.714M0 16h45.714M0 29.714h45.714"></path>
        </symbol>
        <symbol id="icon-person" viewBox="0 0 32 32">
            <path d="M16 16c2.947 0 5.333-2.387 5.333-5.333s-2.387-5.333-5.333-5.333c-2.947 0-5.333 2.387-5.333 5.333s2.387 5.333 5.333 5.333zM16 18.667c-3.56 0-10.667 1.787-10.667 5.333v1.333c0 0.733 0.6 1.333 1.333 1.333h18.667c0.733 0 1.333-0.6 1.333-1.333v-1.333c0-3.547-7.107-5.333-10.667-5.333z"></path>
        </symbol>
        <symbol id="icon-phone" viewBox="0 0 32 32">
            <path d="M24.882 19.773l-3.268-0.373c-0.785-0.090-1.557 0.18-2.11 0.733l-2.367 2.367c-3.641-1.853-6.626-4.825-8.478-8.478l2.38-2.38c0.553-0.553 0.823-1.325 0.733-2.11l-0.373-3.242c-0.154-1.299-1.248-2.277-2.56-2.277h-2.226c-1.454 0-2.663 1.209-2.573 2.663 0.682 10.987 9.469 19.761 20.443 20.443 1.454 0.090 2.663-1.119 2.663-2.573v-2.226c0.013-1.3-0.965-2.393-2.264-2.547z"></path>
        </symbol>
        <symbol id="icon-email" viewBox="0 0 32 32">
            <path d="M26.667 5.333h-21.333c-1.467 0-2.653 1.2-2.653 2.667l-0.013 16c0 1.467 1.2 2.667 2.667 2.667h21.333c1.467 0 2.667-1.2 2.667-2.667v-16c0-1.467-1.2-2.667-2.667-2.667zM26.133 11l-9.427 5.893c-0.427 0.267-0.987 0.267-1.413 0l-9.427-5.893c-0.333-0.213-0.533-0.573-0.533-0.96 0-0.893 0.973-1.427 1.733-0.96l8.933 5.587 8.933-5.587c0.76-0.467 1.733 0.067 1.733 0.96 0 0.387-0.2 0.747-0.533 0.96z"></path>
        </symbol>
        <symbol id="icon-send" viewBox="0 0 32 32">
            <path d="M32 0l-32 18 10.227 3.788 15.773-14.788-11.998 16.186 0.010 0.004-0.012-0.004v8.814l5.735-6.691 7.265 2.691 5-28z"></path>
        </symbol>
        <symbol id="icon-check" viewBox="0 0 42 32">
            <path  d="M6.263 15.205l-0.22-0.21-3.307 3.132 11.651 11.114 24.477-23.351-3.285-3.134-21.192 20.197-8.124-7.75z"></path>
        </symbol>
        <symbol id="icon-menu" viewBox="0 0 48 32">
            <path d="M0 5.333v-5.333h48v5.333h-48zM0 18.667h48v-5.333h-48v5.333zM0 32h48v-5.333h-48v5.333z"></path>
        </symbol>
        <symbol id="icon-city" viewBox="0 0 32 32">
            <path d="M27.923 23.791v-10.159h-4.52v10.159h-3.011v-18.964h-7.537v18.964h-2.009v-12.193h-6.53v12.19h-4.315v3.388h32.003v-3.388l-4.080 0.003zM17.23 6.526h2.382v1.648h-2.382v-1.648zM17.23 9.123h2.382v1.646h-2.382v-1.646zM13.635 6.526h2.379v1.648h-2.379v-1.648zM13.635 9.123h2.379v1.646h-2.379v-1.646zM8.428 13.005h1.459v1.946h-1.459v-1.946zM5.275 13.005h1.459v1.946h-1.459v-1.946z"></path>
        </symbol>
        <symbol id="icon-location" viewBox="0 0 32 32">
            <path d="M29.41 19.73l-7.46-4.84c0.98-1.6 1.49-3.43 1.5-5.45 0.010-4.090-3.31-7.43-7.4-7.43-4.1-0.010-7.43 3.3-7.45 7.4-0.010 2.020 0.49 3.85 1.47 5.46l-7.48 4.8c-0.31 0.2-0.5 0.55-0.5 0.93-0.010 0.38 0.18 0.72 0.5 0.93l12.78 8.3c0.18 0.12 0.39 0.18 0.6 0.18s0.42-0.060 0.6-0.18l12.83-8.24c0.32-0.2 0.51-0.55 0.51-0.93s-0.18-0.73-0.5-0.93zM19.36 9.39c-0.012 1.836-1.503 3.319-3.34 3.32h-0c-1.83 0-3.32-1.5-3.32-3.33 0.003-1.837 1.493-3.325 3.33-3.325 1.839 0 3.33 1.491 3.33 3.33 0 0.002 0 0.004 0 0.005v-0zM15.98 27.58l-10.75-6.99 6.17-3.96 0.46 0.46c0.060 0.060 0.12 0.11 0.18 0.17 0.070 0.070 0.14 0.13 0.21 0.19l0.18 0.15 0.21 0.18c0.060 0.040 0.12 0.090 0.17 0.13l0.22 0.16c0.050 0.040 0.1 0.070 0.16 0.12 0.070 0.050 0.15 0.1 0.23 0.15 0.040 0.030 0.090 0.060 0.13 0.090 0.12 0.070 0.24 0.15 0.35 0.21 0.040 0.030 0.1 0.060 0.14 0.090 0.070 0.040 0.13 0.070 0.19 0.1 0.050 0.030 0.1 0.060 0.15 0.080l0.15 0.090c0.050 0.020 0.1 0.040 0.14 0.070 0.050 0.020 0.1 0.040 0.14 0.070 0.040 0.020 0.090 0.040 0.13 0.060l0.12 0.060c0.040 0.010 0.080 0.030 0.11 0.050 0.038 0.008 0.071 0.022 0.101 0.041l-0.001-0.001c0.040 0.010 0.070 0.030 0.1 0.040s0.050 0.010 0.070 0.030c0.030 0.010 0.050 0.010 0.070 0.020l0.060 0.030c0.010 0 0.020 0.010 0.040 0.010 0.020 0.010 0.040 0.010 0.040 0.020 0.106 0.038 0.228 0.060 0.355 0.060s0.249-0.022 0.363-0.062l-0.008 0.002c0.010 0 0.020-0.010 0.040-0.010 0.010-0.010 0.020-0.010 0.040-0.010 0.020-0.010 0.040-0.010 0.060-0.020s0.040-0.020 0.070-0.030c0.020-0.010 0.040-0.010 0.070-0.030 0.030-0.010 0.060-0.020 0.090-0.040 0.030-0.010 0.070-0.030 0.1-0.040s0.070-0.030 0.1-0.040c0.040-0.020 0.080-0.040 0.13-0.060 0.040-0.020 0.080-0.040 0.13-0.060 0.040-0.020 0.090-0.040 0.13-0.070 0.050-0.020 0.1-0.050 0.15-0.070 0.040-0.020 0.1-0.050 0.15-0.080s0.1-0.050 0.16-0.080c0.050-0.030 0.1-0.070 0.16-0.1s0.11-0.070 0.17-0.1c0.070-0.050 0.15-0.1 0.24-0.15 0.1-0.060 0.19-0.13 0.29-0.19 0.060-0.040 0.12-0.070 0.18-0.11 0.070-0.050 0.13-0.1 0.2-0.15 0.060-0.040 0.12-0.080 0.18-0.13 0.070-0.050 0.13-0.11 0.21-0.16l0.18-0.15c0.070-0.050 0.14-0.11 0.21-0.17 0.060-0.050 0.13-0.11 0.18-0.16 0.070-0.060 0.13-0.13 0.21-0.19l0.38-0.38c0.010-0.020 0.040-0.040 0.060-0.070l6.16 4-10.81 6.93z"></path>
        </symbol>
    </defs>
</svg>